<?xml version="1.0" encoding="UTF-8"?>
<svg id="Layer_2" data-name="Layer 2" xmlns="http://www.w3.org/2000/svg" viewBox="0 0 3170.79 1357.69">
  <defs>
    <style>
      .cls-1, .cls-2 {
        fill: #1d1d1b;
      }

      .cls-3 {
        fill: none;
        stroke: #fff;
        stroke-miterlimit: 10;
      }

      .cls-3, .cls-2 {
        stroke-width: .25px;
      }

      .cls-2 {
        stroke: #1d1d1b;
        stroke-linecap: round;
        stroke-linejoin: round;
      }

      .cls-4 {
        fill: #3a8935;
      }

      .cls-5 {
        fill: #3c8533;
      }

      .cls-6 {
        fill: #df5923;
      }
    </style>
  </defs>
  <g id="Capa_1" data-name="Capa 1">
    <g>
      <path class="cls-4" d="M298.17,109.69c-13.93-13.84-32.24-20.76-50.5-20.76s-36.49,6.88-50.41,20.67l-74.27,73.41,101.17,100.35,74.01-73.45c27.93-27.68,27.93-72.55,0-100.22M284.25,132.43c-1.72,1.68-4.43,1.63-6.1-.04-10.44-10.57-21.36-15.9-32.54-15.81-16.2.09-27.46,11.65-27.59,11.78l-54.06,54.06c-.86.82-1.93,1.25-3.05,1.25s-2.19-.43-3.05-1.25c-1.68-1.67-1.68-4.43,0-6.1l54.02-53.98c.51-.56,13.88-14.22,33.69-14.35,13.53-.13,26.52,6.06,38.68,18.39,1.68,1.68,1.68,4.38,0,6.06"/>
      <path class="cls-4" d="M116.77,189.2l-74.05,73.45c-4.95,4.95-9.03,10.4-12.21,16.2-12.29,22.3-11.56,49.73,2.15,71.43,2.79,4.47,6.14,8.72,10.06,12.59,13.97,13.84,32.23,20.76,50.54,20.76s36.49-6.88,50.41-20.67l74.26-73.45-101.17-100.31ZM118.83,227.53l-53.98,54.02c-.18.13-11.78,11.6-11.87,27.72-.04,11.09,5.29,22,15.86,32.45,1.67,1.67,1.72,4.38.04,6.1-.86.82-1.98,1.25-3.05,1.25s-2.19-.39-3.05-1.25c-12.29-12.12-18.48-25.18-18.39-38.68.17-19.81,13.84-33.18,14.44-33.74l53.94-53.94c1.68-1.72,4.38-1.72,6.06,0,1.68,1.68,1.68,4.39,0,6.06"/>
      <path class="cls-4" d="M441.84,334.33c-1.72-2.41-3.74-4.64-6.06-6.62l-42.25-36.31-48.99,58.1,42.25,36.19c15.9,13.62,39.75,11.69,53.29-4.34.65-.77,1.29-1.59,1.85-2.4,4.77-6.66,7.13-14.44,7.13-22.22s-2.45-15.78-7.22-22.39M430.63,374.69c-.81.95-2.28,1.03-3.22.22-.99-.82-1.08-2.28-.26-3.23,5.2-6.02,7.52-12.03,7.01-17.96-.73-8.64-7.35-14.14-7.43-14.18l-31.07-26.39c-.47-.43-.73-.99-.81-1.59-.04-.56.13-1.16.56-1.67.81-.94,2.28-1.08,3.22-.26l31.03,26.39c.3.26,8.17,6.74,9.11,17.27.64,7.22-2.11,14.4-8.12,21.4"/>
      <path class="cls-4" d="M347.77,252.16c-15.9-13.67-39.75-11.74-53.29,4.3-6.02,7.18-8.98,15.9-8.98,24.63,0,10.79,4.51,21.49,13.28,29.05l42.25,36.32,49-58.1-42.25-36.19ZM369.69,291.1l-31.03-26.39c-.09-.09-6.66-5.76-15.26-5.12-5.89.47-11.47,3.78-16.55,9.84-.82.99-2.28,1.08-3.22.26-.52-.38-.77-.94-.82-1.54-.04-.6.13-1.16.52-1.68,5.93-7.05,12.59-10.92,19.77-11.43,10.57-.77,18.27,5.93,18.57,6.19l31.03,26.39c.94.82,1.07,2.24.26,3.23-.82.94-2.28,1.07-3.27.26"/>
      <path class="cls-4" d="M181.87,375.03l131.77,95.07c-14.91,16.28-36.4,26.47-60.25,26.47-45.21,0-81.83-36.62-81.83-81.83,0-14.39,3.74-27.93,10.31-39.71"/>
      <path class="cls-4" d="M335.22,414.74c0,15.17-4.13,29.36-11.34,41.56l-132.11-95.32c14.96-17.19,37-28.06,61.63-28.06,45.17,0,81.83,36.66,81.83,81.83"/>
      <path class="cls-4" d="M477.3,475.82c-1.33-22.74-4.86-45.26-4.86-45.26-13.32-70.52,3.82-224.3,3.82-224.3,1.72-58.36-3.18-102.5-8-130.52-3.31-19.13-19.85-32.88-39.02-32.88-.77,0-1.59.04-2.41.09-41.47,2.49-109.51,5.46-161.94,5.46-27.25,0-50.28-.77-63.13-2.88-11.69-1.89-29.18-2.58-48.95-2.58-37.35,0-82.64,2.54-111.36,4.43-17.79,1.2-32.28,14.74-34.55,32.41-11.65,89.09,3.65,267.88-.81,303.85-2.75,22.13-4.77,59.27-6.06,88.53-.99,23.12,17.54,42.33,40.53,42.33.39,0,.73,0,1.07-.04,141.78-3.61,330.63-4.69,403.99-4.99,18.22-.09,32.7-15.43,31.67-33.65M449.92,481.75c-.81.86-2.24,1.89-4.38,1.93-32.58.13-86.95.39-149.69.99-26.65.26-54.8.56-83.46.9-58.02.73-118.02,1.72-171.4,3.1l-.43.04c-5.46,0-9.03-2.88-10.66-4.6-1.63-1.67-4.34-5.33-4.08-10.83,1.67-39.45,3.74-69.36,5.84-86.47.99-7.91,1.2-19.77.99-36.53-.26-15.34-.9-34.77-1.72-59.1-.13-4.04-.3-8.12-.43-12.33-2.19-64.08-4.47-146.21,1.98-195.76.69-5.41,5.2-9.62,10.7-9.97,30.17-2.02,73.71-4.38,109.64-4.38,25.49,0,38.42,1.2,44.83,2.23,13.36,2.2,35.37,3.23,67.26,3.23,53.37,0,121.41-2.97,163.48-5.5.3-.04.6-.04.86-.04,6.74,0,12.46,4.81,13.58,11.47,4.43,25.53,9.28,67.82,7.69,124.37-1.03,9.37-7.35,69.02-8.68,129.84-.34,15.04-.39,30.17.09,44.61.56,20.76,2.11,40.14,5.08,55.96.47,2.88,3.39,22.78,4.55,42.42.13,2.11-.82,3.57-1.63,4.43"/>
      <path class="cls-6" d="M835.65,1087.04c-1.33-22.74-4.86-45.26-4.86-45.26-13.36-70.53,3.83-224.3,3.83-224.3,1.72-58.41-3.18-102.55-8-130.53-3.44-19.94-21.27-34.04-41.43-32.79-63.05,3.78-187.47,8.68-225.08,2.58-33.78-5.5-116.47-1.08-160.3,1.85-17.79,1.16-32.28,14.7-34.6,32.36-4.17,32.06-4.86,75.72-4.21,120.12,1.59-.3,40.87-8.77,69.92,16.97,0,0,159.88,116.04,249.36,194.73-7.39-7.82-89.05-93.43-163.36-145.13,0,0,2.54-14.01,15.26-7.65,0,0,14.83,16.55,40.23,5.93,0,0,171.95-70.31,156.74,73.28,0,0-32.62-33.35-78.82-32.79-46.16.6-35.54,22.22-35.54,22.22,0,0,8.85,16.93,41.47,13.97,0,0,88.53-19.04,69.49,117.76,0,0-105.89,5.93-110.15-59.31,0,0,.94-26.69-18.57-21.19,0,0-18.18,3.4,0,43.62,0,0,20.28,32.92,39.32,37,0,0-84.23,40.96-90.81-77.23,0,0-3.22-71.17-26.94-52.52,0,0-32.62,42.8,41.51,144.87,0,0-133.83,8.47-98.68-149.09,0,0,14.4-52.13-13.97-36.45-28.41,15.69-22.48,101.21-12.29,145.27,0,0-42.8-8.9-62.71-46.16,0,0,52.52-75.38,25.83-81.74-25.75-6.15-32.62,44.1-33.05,47.66,0,.04-.05.04,0,.09.13,13.23-.05,23.51-.82,29.61-2.75,22.17-4.77,59.31-6.06,88.58-.99,23.47,18.1,42.89,41.6,42.29,141.78-3.61,330.62-4.72,403.99-5.03,18.22-.04,32.71-15.39,31.68-33.61M503.34,868.33s-151.2-86.47-70.7-142.34c70.48-48.91,125.36-19.9,125.36-19.9-55.91,19.08-84.28,44.05-96.14,52.09-11.86,8.08-4.68,16.55-4.68,16.55,16.55,15.65,53.81-27.12,53.81-27.12,86-70.31,126.22,5.93,126.22,5.93,20.76,33.87,73.71,86.82,73.71,86.82-146.98-89.35-207.58,27.98-207.58,27.98"/>
      <path class="cls-5" d="M2755.06,856.38v68.55c0,17.45-14.27,31.72-31.76,31.72h-80.33v80.33c0,17.49-14.27,31.76-31.76,31.76h-68.55c-17.45,0-31.76-14.27-31.76-31.76v-80.33h-80.32c-17.45,0-31.72-14.27-31.72-31.72v-68.55c0-17.49,14.27-31.76,31.72-31.76h80.32v-80.33c0-17.49,14.31-31.76,31.76-31.76h68.55c17.49,0,31.76,14.27,31.76,31.76v80.33h80.33c17.49,0,31.76,14.27,31.76,31.76"/>
      <path class="cls-5" d="M2729.76,684.86c3.55,0,5.77,1.92,6.77,3.07,1.02,1.16,2.65,3.64,2.17,7.23-5.91,44.35-12.35,111.03-9.4,176.91.06,1.28,5.97,128.84,3.51,205.66-.37,11.82-9.92,21.16-21.72,21.25-26.01.2-64.43.45-99.7.45-38.22,0-64.95-.28-79.42-.83-7.12-.27-17.13-.41-29.77-.41-44.02,0-112.66,1.61-162.49,2.96h-.62c-11.42,0-20.86-8.57-21.97-19.95-2.91-30.01-6.23-74.67-5.61-117.5,1.34-15.26,14.73-172.95,4.25-275.95-.08-.78.14-1.47.66-2.04.76-.84,1.62-.84,1.89-.84h411.44ZM2729.76,659.07h-411.44c-16.83,0-29.91,14.54-28.21,31.28,10.66,104.78-4.36,272-4.36,272-.69,43.7,2.59,89.11,5.71,121.33,2.38,24.6,23.05,43.25,47.63,43.25.44,0,.88,0,1.31-.02,45.78-1.24,117-2.94,161.8-2.94,11.71,0,21.62.12,28.79.39,16.73.63,47.21.85,80.4.85s71.9-.23,99.9-.45c25.63-.2,46.48-20.59,47.3-46.21,2.51-78.76-3.53-207.69-3.53-207.69-2.92-65.15,3.78-131.62,9.2-172.29,2.79-20.91-13.42-39.49-34.5-39.49"/>
      <path class="cls-6" d="M3164.8,508.43c-.82,25.62-21.66,45.99-47.32,46.2-54.93.43-146.17.9-180.29-.39-34.6-1.33-132.84.99-190.6,2.53-25.14.69-46.5-18.18-48.91-43.23-2.88-29.74-5.93-70.66-5.8-111.14h130.09v20.72h88.45c-.04.6-.04,1.16-.04,1.76,0,57.2,46.37,103.58,103.53,103.58s103.58-46.37,103.58-103.58c0-.6,0-1.16-.04-1.76h47.58c.51,29.65.6,60.04-.22,85.31"/>
      <path class="cls-6" d="M3170.48,128.43c-2.45,18.39-5.16,42.08-7.14,68.55h-394.74l54.23,91.89v96.14h-130.26c2.71-33.09,13.07-172.94,3.74-264.78-1.67-16.72,11.39-31.29,28.24-31.29h411.42c21.1,0,37.31,18.61,34.51,39.5"/>
      <line class="cls-3" x1="3165.06" y1="423.12" x2="3165.02" y2="423.12"/>
      <path class="cls-6" d="M3161.41,303.26h-69.62v53.42c-7.05-8.08-15.3-15-24.54-20.54v-32.88h-85.65v23.25c-8.77,2.88-16.97,6.88-24.54,11.91v-35.16h-80.84v89.82c0,6.75-5.54,12.29-12.29,12.29s-12.29-5.54-12.29-12.29v-89.82h-9.93c-6.19,0-11.26-5.03-11.26-11.22,0-3.1,1.25-5.89,3.31-7.91,2.06-2.07,4.86-3.31,7.95-3.31h9.93v-49.98c0-6.75,5.54-12.29,12.29-12.29,3.35,0,6.44,1.38,8.68,3.61,2.24,2.23,3.61,5.33,3.61,8.68v49.98h80.84v-49.98c0-6.75,5.5-12.29,12.25-12.29,3.39,0,6.44,1.38,8.68,3.61,2.24,2.23,3.61,5.33,3.61,8.68v49.98h85.65v-49.98c0-6.75,5.5-12.29,12.29-12.29,3.39,0,6.44,1.38,8.64,3.61,2.23,2.23,3.61,5.33,3.61,8.68v49.98h68.93c.09,6.62.26,13.28.56,19.9,0,0,.05.86.13,2.54"/>
      <polygon class="cls-6" points="3054.82 399.52 3054.26 399.82 3054.77 399.52 3054.82 399.52"/>
      <path class="cls-6" d="M3028.52,424.89c0,8.08-6.53,14.61-14.61,14.61s-14.61-6.53-14.61-14.61,6.58-14.61,14.61-14.61,14.61,6.53,14.61,14.61"/>
      <path class="cls-6" d="M3101.11,430.26l-46.28-30.73,34.68-18.57-55.31-.86,18.65-34.08-46.72,30.73-3.05-39.97-22.35,51.23-24.41-31.8,8.12,54.75-36.66-12.89,36.96,41.34-37.99,9.28,54.19,13.71-27.42,29.27,52.91-18.13-6.96,39.49,34.38-44.09,15.73,36.87,4.73-55.7,33.35,22.3-25.92-45.55,39.37,3.4ZM3032.56,434.81h-.09l11.78,6.4-20.97.3,7.48,13.93-17.79-11.91-1.21,16.2-8.55-19.86-9.63,12.77,3.05-21.1-14.57,5.2,14.06-15.95-15.26-3.78,20.67-5.29-10.92-11.86,20.16,7.01-2.79-16.03,13.11,17.1,6.27-14.95,1.8,21.57,13.5-9.15-9.97,17.79,15.38-1.33-17.54,11.86,2.02,1.08Z"/>
      <polygon class="cls-6" points="3054.82 399.52 3054.26 399.82 3054.77 399.52 3054.82 399.52"/>
      <polygon class="cls-1" points="915.69 1232.14 915.69 1356.09 895.49 1356.09 895.49 1301.34 837.58 1301.34 837.58 1356.09 817.38 1356.09 817.38 1232.14 837.58 1232.14 837.58 1285.64 895.49 1285.64 895.49 1232.14 915.69 1232.14"/>
      <path class="cls-1" d="M1205.29,1257.82v98.27h-20.19v-11.59c-3.19,4.04-7.35,7.22-12.49,9.54-5.13,2.32-10.6,3.48-16.38,3.48-7.68,0-14.56-1.6-20.64-4.81-6.08-3.21-10.87-7.97-14.35-14.27-3.48-6.3-5.22-13.91-5.22-22.83v-57.79h20.01v54.76c0,8.8,2.19,15.55,6.56,20.24,4.36,4.7,10.33,7.05,17.89,7.05s13.55-2.34,17.98-7.05c4.43-4.69,6.65-11.44,6.65-20.24v-54.76h20.19Z"/>
      <path class="cls-1" d="M1405.88,1280.29c4.07-7.61,9.62-13.53,16.65-17.75,7.02-4.22,14.79-6.33,23.29-6.33,7.67,0,14.38,1.51,20.1,4.54,5.72,3.03,10.3,6.81,13.72,11.33v-14.27h20.37v98.27h-20.37v-14.62c-3.42,4.63-8.09,8.5-13.99,11.6-5.91,3.09-12.64,4.63-20.19,4.63-8.39,0-16.06-2.17-23.02-6.51-6.97-4.34-12.49-10.4-16.56-18.19-4.07-7.78-6.11-16.61-6.11-26.48s2.04-18.61,6.11-26.21M1475.49,1289.21c-2.78-4.99-6.41-8.8-10.89-11.41-4.5-2.61-9.33-3.92-14.53-3.92s-10.03,1.27-14.52,3.83c-4.49,2.56-8.12,6.3-10.89,11.24-2.78,4.93-4.17,10.79-4.17,17.57s1.39,12.72,4.17,17.84c2.77,5.11,6.43,9.01,10.98,11.68,4.54,2.68,9.36,4.01,14.43,4.01s10.03-1.3,14.53-3.92c4.48-2.61,8.11-6.45,10.89-11.5,2.78-5.05,4.16-10.97,4.16-17.75s-1.39-12.66-4.16-17.66"/>
      <path class="cls-1" d="M1700.61,1280.2c4.07-7.67,9.71-13.58,16.91-17.75,7.2-4.16,15.47-6.24,24.8-6.24,11.8,0,21.58,2.83,29.31,8.47,7.73,5.65,12.96,13.71,15.68,24.16h-21.79c-1.77-4.87-4.6-8.68-8.5-11.41-3.9-2.74-8.8-4.1-14.7-4.1-8.27,0-14.85,2.94-19.75,8.83-4.9,5.88-7.35,14.12-7.35,24.7s2.45,18.85,7.35,24.79c4.9,5.95,11.48,8.92,19.75,8.92,11.69,0,19.42-5.17,23.2-15.52h21.79c-2.83,9.99-8.15,17.93-15.94,23.81-7.79,5.88-17.48,8.82-29.05,8.82-9.33,0-17.6-2.11-24.8-6.33-7.2-4.22-12.84-10.16-16.91-17.84-4.07-7.67-6.11-16.55-6.11-26.66s2.04-18.99,6.11-26.66"/>
      <path class="cls-1" d="M1981.53,1280.29c4.07-7.61,9.62-13.53,16.65-17.75,7.02-4.22,14.79-6.33,23.29-6.33,7.67,0,14.38,1.51,20.1,4.54,5.72,3.03,10.3,6.81,13.72,11.33v-14.27h20.37v98.27h-20.37v-14.62c-3.42,4.63-8.09,8.5-13.99,11.6-5.9,3.09-12.63,4.63-20.19,4.63-8.39,0-16.06-2.17-23.02-6.51-6.97-4.34-12.49-10.4-16.56-18.19-4.07-7.78-6.11-16.61-6.11-26.48s2.04-18.61,6.11-26.21M2051.14,1289.21c-2.78-4.99-6.41-8.8-10.89-11.41-4.49-2.61-9.33-3.92-14.52-3.92s-10.03,1.27-14.52,3.83c-4.49,2.56-8.12,6.3-10.89,11.24-2.78,4.93-4.17,10.79-4.17,17.57s1.39,12.72,4.17,17.84c2.77,5.11,6.43,9.01,10.98,11.68,4.54,2.68,9.36,4.01,14.43,4.01s10.03-1.3,14.52-3.92c4.49-2.61,8.12-6.45,10.89-11.5,2.78-5.05,4.16-10.97,4.16-17.75s-1.39-12.66-4.16-17.66"/>
      <path class="cls-1" d="M2291.59,1353.5c-6.03-2.79-10.8-6.6-14.35-11.42-3.54-4.81-5.43-10.2-5.67-16.14h20.9c.36,4.52,2.33,8.27,5.94,11.24,3.6,2.97,8.12,4.46,13.55,4.46s10.07-1.16,13.2-3.48c3.13-2.32,4.69-5.44,4.69-9.36,0-3.57-1.77-6.3-5.31-8.21-3.55-1.89-9.04-3.8-16.47-5.7-7.2-2.02-13.08-3.96-17.62-5.8-4.54-1.84-8.47-4.7-11.78-8.56-3.31-3.87-4.96-8.89-4.96-15.07,0-5.35,1.48-10.25,4.43-14.71,2.95-4.45,7.23-8,12.84-10.61,5.61-2.61,12.19-3.92,19.75-3.92,11.1,0,20.05,2.83,26.84,8.47,6.79,5.65,10.42,13.35,10.89,23.1h-20.19c-.35-4.75-2.12-8.53-5.31-11.32-3.19-2.79-7.5-4.19-12.93-4.19s-9.39,1.1-12.22,3.3c-2.83,2.2-4.25,5.15-4.25,8.83,0,2.62.94,4.81,2.83,6.6,1.89,1.78,4.25,3.19,7.08,4.19,2.83,1.01,6.85,2.23,12.05,3.65,7.09,1.9,12.87,3.81,17.36,5.71,4.49,1.9,8.32,4.79,11.51,8.65,3.19,3.87,4.78,8.89,4.78,15.07,0,5.59-1.48,10.61-4.43,15.07-2.95,4.45-7.24,7.96-12.84,10.52-5.61,2.56-12.25,3.83-19.92,3.83s-14.34-1.4-20.37-4.19"/>
      <path class="cls-1" d="M840.58,0h-260.44c-11.13,0-20.15,9.02-20.15,20.15v497.62c0,11.13,9.02,20.16,20.15,20.16h82.91v-204.5h152.11c8.86,0,16.04-7.18,16.04-16.04v-61.95c0-8.86-7.18-16.04-16.04-16.04h-152.11V94.03h177.53c8.86,0,16.04-7.18,16.04-16.04V16.04c0-8.86-7.18-16.04-16.04-16.04"/>
      <path class="cls-1" d="M1217.63,100.49h-202.42c-72.63,0-131.47,58.84-131.47,131.47v180.85c0,69.11,56,125.11,125.1,125.11h32.02c37.39,0,70.31-18.83,89.95-47.49v23.94c0,13.03,10.53,23.56,23.55,23.56h63.26c13.02,0,23.59-10.53,23.59-23.56V124.04c0-13.02-10.57-23.55-23.59-23.55M1130.81,393.34c0,28.41-23.03,51.4-51.4,51.4h-39.11c-27.51,0-49.86-22.3-49.86-49.85v-150.21c0-27.51,22.35-49.86,49.86-49.86h90.51v198.51Z"/>
      <path class="cls-1" d="M2566.28,100.49h-202.42c-72.63,0-131.47,58.84-131.47,131.47v180.85c0,69.11,56,125.11,125.11,125.11h32.02c37.39,0,70.31-18.83,89.95-47.49v23.94c0,13.03,10.53,23.56,23.55,23.56h63.26c13.02,0,23.59-10.53,23.59-23.56V124.04c0-13.02-10.57-23.55-23.59-23.55M2479.46,393.34c0,28.41-23.04,51.4-51.4,51.4h-39.11c-27.51,0-49.86-22.3-49.86-49.85v-150.21c0-27.51,22.35-49.86,49.86-49.86h90.51v198.51Z"/>
      <path class="cls-1" d="M2173.49,224.18v295.6c-2.02,10.66-11.39,18.7-22.61,18.7h-61.5c-12.72,0-23.03-10.31-23.03-23.04V240.73c0-25.36-20.55-45.9-45.9-45.9h-27.98c-30.3,0-54.88,24.58-54.88,54.92v265.68c0,12.72-10.32,23.04-23.08,23.04h-61.46c-12.72,0-23.08-10.31-23.08-23.04V240.73c0-25.36-20.54-45.9-45.86-45.9h-36.44c-30.35,0-54.93,24.58-54.93,54.92v265.68c0,12.72-10.31,23.04-23.04,23.04h-61.5c-12.72,0-23.04-10.31-23.04-23.04V124.13c0-12.72,10.31-23.04,23.04-23.04h61.5c12.72,0,23.04,10.31,23.04,23.04v19.55c22.69-26.08,56.13-42.59,93.43-42.59h28.58c9.28,0,18.31,1.03,26.99,3.01,32.06,7.13,59.35,26.86,76.5,53.68,5.41-8.46,11.95-16.24,19.34-23.08,22.13-20.67,51.83-33.35,84.53-33.35h28.54c9.28,0,18.31,1.03,26.99,3.01,54.88,12.29,95.84,61.29,95.84,119.82"/>
      <path class="cls-1" d="M1121.89,604.86h-212.61c-8.97,0-16.23,7.27-16.23,16.23v503.77c0,8.96,7.27,16.23,16.23,16.23h89.65v-183.83h122.95c70.12,0,126.96-56.84,126.96-126.95v-98.5c0-70.11-56.84-126.95-126.96-126.95M1142.96,828.29c0,19.77-16.03,35.79-35.79,35.79h-108.22v-166.54h108.22c19.77,0,35.79,16.02,35.79,35.79v94.95Z"/>
      <path class="cls-1" d="M1844.37,723.36v398.32c0,10.74-8.68,19.42-19.38,19.42h-70.48c-10.7,0-19.38-8.68-19.38-19.42v-52.82c0,39.88-32.37,72.25-72.25,72.25h-51.06c-8.68,0-17.19-.9-25.36-2.58-56.86-11.74-99.58-62.06-99.58-122.36v-292.8c0-10.7,8.68-19.38,19.42-19.38h70.49c10.7,0,19.38,8.68,19.38,19.38v280.9c0,24.11,19.56,43.67,43.66,43.67h47.75c26.26,0,47.53-21.32,47.53-47.53v-277.03c0-10.7,8.68-19.38,19.38-19.38h70.48c10.7,0,19.38,8.68,19.38,19.38"/>
      <path class="cls-1" d="M1554.44,120.65v51.57c0,13.92-11.26,25.14-25.14,25.14h-60.64c-27.38,0-49.55,22.18-49.55,49.55v874.12c0,11.09-8.98,20.07-20.07,20.07h-70.82c-11.09,0-20.07-8.98-20.07-20.07V121.17c0-11.09,8.99-20.07,20.07-20.07h70.82c11.09,0,20.07,8.98,20.07,20.07v16.89c24.24-22.91,56.94-36.96,92.96-36.96h22.82c10.83,0,19.56,8.77,19.56,19.56"/>
      <path class="cls-1" d="M2210.53,1007.23v32.62c0,23.43-8,45.04-21.36,62.19-18.52,23.77-47.4,39.07-79.9,39.07h-190.52c-11.6,0-21.02-9.41-21.02-21.01v-51.14c0-11.6,9.41-21.02,21.02-21.02h141.82c4.09,0,37.91-.73,40.27-24.58,2.54-25.4-48.91-48.91-48.91-48.91l-26.09-14.44-81.92-45.3s-24.5-12.25-39.32-46.54c-.04,0,0-.05,0-.05-1.42-3.22-2.75-6.66-3.96-10.31-1.89-6.32-2.92-13.02-2.92-19.94v-32.62c0-6.83.69-13.45,1.98-19.9,9.24-46.37,50.2-81.36,99.32-81.36h169.59c11.35,0,20.55,9.2,20.55,20.54v52.09c0,11.34-9.2,20.54-20.55,20.54h-126.05c-5.07,0-29.65,1.03-31.93,20.97-2.54,22.22,43.84,45.13,43.84,45.13l27.93,15.9,76.24,43.36s53.55,33.78,51.88,84.71"/>
      <path class="cls-2" d="M1900.67,857.8c1.2,3.65,2.54,7.09,3.96,10.31-1.59-3.31-2.92-6.74-3.96-10.31Z"/>
    </g>
  </g>
</svg>