<svg width="229" height="141" viewBox="0 0 229 141" fill="none" xmlns="http://www.w3.org/2000/svg">
<g clip-path="url(#clip0_46_4296)">
<path d="M1.77438 54.4571C0.588977 54.4571 0 54.0315 0 52.6799V1.77715C0 0.425621 0.588977 0 1.77438 0H28.748C30.0154 0 30.4404 0.589896 30.4404 1.77715V7.53424C30.4404 8.7215 30.0154 9.31139 28.748 9.31139H11.7572C11.0787 9.31139 10.7432 9.56527 10.7432 10.2448V23.3718C10.7432 24.1335 11.0787 24.3873 11.7572 24.3873H26.2206C27.4881 24.3873 27.995 24.9772 27.995 26.1645V31.8394C27.995 33.1088 27.4881 33.7062 26.2206 33.7062H11.7572C11.0787 33.7062 10.7432 33.9601 10.7432 34.6396V52.6799C10.7432 54.0315 10.1543 54.4571 8.96884 54.4571H1.77438Z" fill="#21401D"/>
<path d="M47.6018 54.457C38.4988 54.457 33.2949 49.4168 33.2949 40.2995V24.3201C33.2949 15.2028 38.4988 10.1626 47.6018 10.1626H67.6345C68.9317 10.1626 69.5431 10.5957 69.5431 11.9846V52.6351C69.5431 54.0239 68.9392 54.457 67.6345 54.457H60.3506C59.1353 54.457 58.5314 54.0239 58.5314 52.6351V49.7677H58.181C56.7943 53.1578 52.8877 54.457 49.6819 54.457H47.6018ZM58.5314 20.6687C58.5314 19.9743 58.181 19.7129 57.4877 19.7129H49.3389C45.6112 19.7129 44.3065 21.1914 44.3065 24.8353V39.7769C44.3065 43.4282 45.6038 44.8992 49.3389 44.8992H52.5448C57.3162 44.8992 58.5314 42.0319 58.5314 38.2984V20.6687Z" fill="#21401D"/>
<path d="M78.5652 54.457C77.35 54.457 76.7461 54.0239 76.7461 52.6351V11.9846C76.7461 10.5957 77.35 10.1626 78.5652 10.1626H85.9386C87.1538 10.1626 87.7577 10.5957 87.7577 11.9846V14.9415H88.1081C89.4054 11.6411 93.4015 10.1626 96.6073 10.1626H99.7311C101.028 10.1626 101.468 10.7674 101.468 11.9846V17.9806C101.468 19.2798 101.036 19.8921 99.7311 19.7204H93.7444C88.9729 19.7204 87.7577 22.6773 87.7577 26.493V52.6351C87.7577 54.0239 87.1538 54.457 85.9386 54.457H78.5652Z" fill="#21401D"/>
<path d="M106.493 54.457C105.278 54.457 104.674 54.0239 104.674 52.6351V11.9846C104.674 10.5957 105.278 10.1626 106.493 10.1626H113.866C115.082 10.1626 115.685 10.5957 115.685 11.9846V14.8519H116.036C117.423 12.1563 120.889 10.1626 125.228 10.1626H127.659C133.124 10.1626 136.329 12.0742 138.499 15.7255C140.408 12.0742 144.307 10.1626 148.646 10.1626H151.158C160.179 10.1626 164.69 15.2028 164.69 24.3201V52.6351C164.69 54.0239 164.086 54.457 162.871 54.457H155.497C154.282 54.457 153.678 54.0239 153.678 52.6351V24.8353C153.678 21.1839 152.381 19.7129 148.646 19.7129H146.476C141.623 19.7129 140.49 22.6699 140.49 26.4034V52.6351C140.49 54.0239 139.796 54.457 138.581 54.457H131.297C130.082 54.457 129.478 54.0239 129.478 52.6351V24.8353C129.478 21.1839 128.091 19.7129 124.364 19.7129H121.672C116.901 19.7129 115.685 22.5803 115.685 26.3138V52.6351C115.685 54.0239 115.082 54.457 113.866 54.457H106.493Z" fill="#21401D"/>
<path d="M184.983 54.457C175.88 54.457 170.676 49.4168 170.676 40.2995V24.3201C170.676 15.2028 175.88 10.1626 184.983 10.1626H205.015C206.313 10.1626 206.924 10.5957 206.924 11.9846V52.6351C206.924 54.0239 206.32 54.457 205.015 54.457H197.731C196.516 54.457 195.912 54.0239 195.912 52.6351V49.7677H195.562C194.175 53.1578 190.269 54.457 187.063 54.457H184.983ZM195.905 20.6687C195.905 19.9743 195.554 19.7129 194.861 19.7129H186.712C182.985 19.7129 181.68 21.1914 181.68 24.8353V39.7769C181.68 43.4282 182.977 44.8992 186.712 44.8992H189.918C194.69 44.8992 195.905 42.0319 195.905 38.2984V20.6687Z" fill="#21401D"/>
<path d="M36.122 115.687C34.9366 115.687 34.3477 115.261 34.3477 113.909V63.0066C34.3477 61.6551 34.9366 61.2295 36.122 61.2295H56.7586C65.556 61.2295 70.6256 66.1428 70.6256 75.036V83.1676C70.6256 92.0609 65.5485 96.9742 56.7586 96.9742H46.1048C45.4264 96.9742 45.0909 97.2281 45.0909 97.9076V113.917C45.0909 115.268 44.5019 115.694 43.3165 115.694H36.1295L36.122 115.687ZM54.9842 87.5657C58.6224 87.5657 59.8899 86.1246 59.8899 82.6524V75.5363C59.8899 71.982 58.6224 70.5409 54.9842 70.5409H46.0228C45.4338 70.5409 45.0909 70.7948 45.0909 71.4743V86.6323C45.0909 87.3118 45.4264 87.5657 46.0228 87.5657H54.9842Z" fill="#21401D"/>
<path d="M78.5808 115.687C77.3656 115.687 76.7617 115.186 76.7617 113.581V47.2961C76.7617 45.6907 77.3656 45.1904 78.5808 45.1904H85.9542C87.1695 45.1904 87.7733 45.6907 87.7733 47.2961V113.581C87.7733 115.186 87.1695 115.687 85.9542 115.687H78.5808Z" fill="#21401D"/>
<path d="M108.498 115.687C99.4773 115.687 94.9668 110.646 94.9668 101.529V73.214C94.9668 71.8252 95.5707 71.3921 96.7859 71.3921H104.159C105.375 71.3921 105.978 71.8252 105.978 73.214V101.014C105.978 104.665 107.365 106.136 111.011 106.136H114.217C118.988 106.136 120.203 103.269 120.203 99.5353V73.214C120.203 71.8252 120.807 71.3921 122.022 71.3921H129.306C130.604 71.3921 131.215 71.8252 131.215 73.214V113.865C131.215 115.253 130.611 115.687 129.306 115.687H122.022C120.807 115.687 120.203 115.253 120.203 113.865V110.997H119.853C118.466 114.387 114.56 115.687 111.354 115.687H108.491H108.498Z" fill="#21401D"/>
<path d="M138.686 115.687C137.388 115.687 136.948 115.082 136.948 113.865V108.302C136.948 107.003 137.299 106.562 138.686 106.562H153.171C155.773 106.562 157.421 105.778 157.421 103.956V103.523C157.421 101.962 155.945 100.656 153.865 99.528L145.276 94.7491C139.722 91.8818 136.688 88.9323 136.688 83.1976C136.688 75.0361 140.848 71.3848 149.958 71.3848H164.444C165.741 71.3848 166.181 71.9896 166.181 73.2067V78.8518C166.181 80.1511 165.831 80.5916 164.444 80.5916H152.389C149.697 80.5916 148.139 81.3757 148.139 82.7645V83.1976C148.139 84.9374 149.958 86.065 151.867 87.1029L160.627 92.3149C166.613 95.5257 168.776 98.393 168.776 104.038C168.776 111.333 164.526 115.679 155.162 115.679H138.686V115.687Z" fill="#21401D"/>
<path d="M221.5 63.8954C222.767 63.8954 223.885 63.9551 224.922 64.0746C225.503 64.1418 225.868 64.3136 226.003 64.5824C226.062 64.7093 226.152 65.0379 226.137 65.4485C225.928 70.4291 225.764 71.9971 225.69 72.4825C225.175 75.6186 225.279 78.4486 225.488 84.0863C225.585 86.8341 225.622 87.2971 225.764 89.022C225.801 89.4775 225.846 90.0226 225.898 90.7319C226.107 93.5022 226.062 96.5413 225.757 100.013C225.533 102.522 225.399 105.061 225.265 107.518C225.227 108.153 225.197 108.78 225.16 109.414C225.13 109.892 225.153 110.325 225.16 110.706C225.175 111.042 225.19 111.356 225.16 111.543C225.123 111.796 225.108 111.931 224.594 111.953C223.483 112.005 222.364 112.065 221.254 112.132C219.285 112.244 217.257 112.356 215.274 112.409C213.522 112.454 211.912 112.483 210.339 112.483C208.989 112.483 207.67 112.468 206.41 112.431C204.949 112.386 203.435 112.297 201.981 112.2C200.267 112.088 198.492 111.976 196.71 111.946C196.487 111.946 196.263 111.946 196.039 111.946C194.459 111.946 192.893 112.043 191.38 112.14C190.716 112.185 190.053 112.222 189.382 112.252C188.36 112.304 187.332 112.356 186.31 112.416C184.588 112.506 182.806 112.603 181.062 112.678C180.905 112.678 180.756 112.685 180.599 112.685C180.048 112.685 179.466 112.648 178.877 112.573C178.683 112.551 178.46 112.521 178.258 111.968C178.117 111.58 178.057 111.005 177.982 110.393C177.96 110.169 177.93 109.945 177.9 109.721C177.841 109.258 177.781 108.795 177.714 108.339C177.498 106.734 177.289 105.218 177.177 103.687C177.013 101.417 176.872 99.207 176.961 97.064C177.051 94.9583 177.17 93.8979 177.311 92.6659C177.438 91.5458 177.58 90.2764 177.729 88.0662C177.856 86.1322 178.251 80.2482 177.662 74.3268C177.475 72.4526 177.326 70.6157 177.155 68.5772C177.065 67.4721 176.976 66.2848 176.939 65.0976C176.939 65.0304 176.983 64.9034 177.103 64.784C177.237 64.6421 177.393 64.5749 177.49 64.5749C178.579 64.545 179.667 64.5152 180.756 64.4778C182.635 64.4181 184.573 64.3509 186.474 64.336C186.713 64.336 186.959 64.336 187.197 64.336C188.345 64.336 189.538 64.3658 190.686 64.3957C191.521 64.4181 192.356 64.433 193.191 64.448C193.713 64.448 194.243 64.4554 194.765 64.4554C195.189 64.4554 195.607 64.4554 196.032 64.4554C196.449 64.4554 196.867 64.4554 197.284 64.4554L200.229 64.4778V64.3509C200.542 64.3434 200.863 64.336 201.176 64.3285C204.047 64.2538 207.014 64.1791 209.936 64.1119C213.328 64.0373 217.28 63.9551 221.164 63.9253H221.492M221.5 61.0206C221.38 61.0206 221.261 61.0206 221.149 61.0206C217.392 61.0505 213.642 61.1251 209.884 61.2073C205.687 61.2969 201.489 61.4163 197.292 61.5209C197.292 61.5283 197.292 61.5433 197.292 61.5508C196.449 61.5508 195.614 61.5508 194.772 61.5508C194.258 61.5508 193.743 61.5507 193.236 61.5433C191.231 61.5209 189.218 61.4387 187.212 61.4387C186.959 61.4387 186.705 61.4387 186.459 61.4387C183.455 61.4761 180.45 61.603 177.438 61.6852C175.634 61.73 174.046 63.3503 174.098 65.1648C174.135 66.3745 174.217 67.5841 174.322 68.7938C174.478 70.7277 174.642 72.6617 174.829 74.5882C175.388 80.2781 175 86.0874 174.888 87.8571C174.583 92.4717 174.299 92.8077 174.121 96.9146C174.024 99.2294 174.173 101.559 174.337 103.866C174.486 105.942 174.806 108.003 175.075 110.064C175.202 111.02 175.254 112.02 175.574 112.909C176.059 114.253 177.036 115.194 178.527 115.388C179.213 115.478 179.913 115.522 180.614 115.522C180.808 115.522 181.002 115.522 181.188 115.508C183.969 115.396 186.75 115.224 189.531 115.089C191.7 114.985 193.877 114.783 196.047 114.783C196.256 114.783 196.457 114.783 196.666 114.783C199.894 114.843 203.107 115.179 206.335 115.269C207.67 115.306 209.004 115.321 210.346 115.321C212.016 115.321 213.686 115.291 215.356 115.246C218.48 115.164 221.604 114.94 224.735 114.791C226.502 114.709 227.77 113.656 228.008 111.901C228.113 111.132 227.978 110.325 228.023 109.549C228.202 106.443 228.344 103.336 228.619 100.237C228.903 96.9893 229.007 93.7411 228.761 90.4855C228.5 87.0955 228.485 87.3568 228.359 83.9519C228.157 78.5009 228.06 75.7755 228.53 72.923C228.672 72.0494 228.836 69.884 229.015 65.5381C229.044 64.784 228.918 63.9327 228.582 63.2607C227.926 61.954 226.666 61.3566 225.279 61.1923C224.034 61.043 222.774 60.9907 221.522 60.9907L221.5 61.0206Z" fill="#408733"/>
<path d="M227.688 89.2758C227.688 87.0133 227.733 84.7433 227.741 82.4808C227.741 82.2867 227.674 82.0029 227.547 81.9283C227.211 81.7341 226.831 81.5997 226.458 81.5176C226.168 81.4504 225.847 81.5176 225.541 81.5101C223.491 81.4578 221.448 81.4056 219.398 81.3533C218.31 81.3309 217.214 81.316 216.125 81.2936C215.305 81.2786 214.999 80.9725 214.962 80.1511C214.962 80.0018 214.962 79.8599 214.962 79.7106C214.962 78.0603 214.962 76.4027 214.962 74.7524H214.984C214.984 72.9828 214.97 71.2056 214.992 69.4359C214.992 69.0551 214.873 68.8087 214.559 68.6145C213.65 68.0321 212.621 67.8753 211.585 67.838C209.713 67.7633 207.835 67.7409 205.956 67.7558C204.599 67.7633 203.287 68.0396 202.109 68.7639C201.438 69.1746 201.177 69.7719 201.17 70.541C201.147 71.8403 201.088 73.147 201.058 74.4463C201.028 75.7082 200.991 76.9702 200.998 78.2395C200.998 79.1655 201.08 80.0914 201.088 81.0173C201.088 81.5474 200.849 81.7864 200.327 81.876C200.103 81.9133 199.88 81.8984 199.649 81.9059C198.426 81.9432 197.203 81.9507 195.981 82.0104C193.841 82.1149 191.709 82.2643 189.569 82.3763C188.973 82.4062 188.555 82.6824 188.279 83.1678C187.974 83.7054 187.884 84.2953 187.929 84.9001C187.981 85.6692 188.056 86.4384 188.078 87.2075C188.123 88.7382 187.944 90.2615 188.138 91.7922C188.339 93.3678 189.137 94.3086 190.702 94.4505C191.358 94.5102 192.029 94.4131 192.685 94.3459C195.243 94.0846 197.785 94.2339 200.32 94.6297C200.953 94.7268 201.334 95.1225 201.416 95.7796C201.513 96.5861 201.565 97.4 201.624 98.2064C201.744 99.7969 201.893 101.395 201.967 102.985C202.027 104.262 201.982 105.539 201.997 106.816C202.005 107.757 202.482 108.167 203.406 108.123C203.839 108.1 204.286 108.138 204.718 108.175C205.926 108.287 207.126 108.526 208.327 108.503C210.25 108.466 212.174 108.272 214.097 108.115C214.91 108.048 215.26 107.525 215.216 106.711C215.171 105.912 215.141 105.113 215.201 104.314C215.312 102.828 215.476 101.343 215.64 99.8641C215.805 98.4379 216.006 97.0117 216.177 95.5855C216.229 95.1673 216.453 94.9508 216.833 94.8313C218.183 94.3982 219.577 94.3385 220.971 94.2937C222.954 94.2339 224.937 94.2265 226.921 94.2115C227.271 94.2115 227.495 94.0622 227.577 93.756C227.674 93.3976 227.77 93.0317 227.77 92.6659C227.77 91.5309 227.703 90.4033 227.703 89.2684L227.688 89.2758Z" fill="#408733"/>
</g>
<defs>
<clipPath id="clip0_46_4296">
<rect width="229" height="141" fill="white"/>
</clipPath>
</defs>
</svg>
