<?xml version="1.0" encoding="UTF-8"?>
<svg id="Layer_2" data-name="Layer 2" xmlns="http://www.w3.org/2000/svg" viewBox="0 0 478.91 467.87">
  <defs>
    <style>
      .cls-1 {
        fill: #3c8533;
      }
    </style>
  </defs>
  <g id="Capa_1" data-name="Capa 1">
    <g>
      <path class="cls-1" d="M472.93,419.5c-.82,25.62-21.66,45.99-47.32,46.2-54.93.43-146.17.9-180.29-.39-34.6-1.33-132.84.99-190.6,2.53-25.14.69-46.5-18.18-48.91-43.23C2.93,394.88-.12,353.96,0,313.48h130.09v20.72h88.45c-.04.6-.04,1.16-.04,1.76,0,57.2,46.37,103.58,103.53,103.58s103.58-46.37,103.58-103.58c0-.6,0-1.16-.04-1.76h47.58c.51,29.65.6,60.04-.22,85.31"/>
      <path class="cls-1" d="M478.6,39.5c-2.45,18.39-5.16,42.08-7.14,68.55H76.72l54.23,91.89v96.14H.69C3.4,262.98,13.76,123.13,4.43,31.29,2.76,14.57,15.82,0,32.67,0h411.42c21.1,0,37.31,18.61,34.51,39.5"/>
      <path class="cls-1" d="M469.53,214.33h-69.62v53.42c-7.05-8.08-15.3-15-24.54-20.54v-32.88h-85.65v23.25c-8.77,2.88-16.97,6.88-24.54,11.91v-35.16h-80.84v89.82c0,6.75-5.54,12.29-12.29,12.29s-12.29-5.54-12.29-12.29v-89.82h-9.93c-6.19,0-11.26-5.03-11.26-11.22,0-3.1,1.25-5.89,3.31-7.91,2.06-2.07,4.86-3.31,7.95-3.31h9.93v-49.98c0-6.75,5.54-12.29,12.29-12.29,3.35,0,6.44,1.38,8.68,3.61,2.24,2.23,3.61,5.33,3.61,8.68v49.98h80.84v-49.98c0-6.75,5.5-12.29,12.25-12.29,3.39,0,6.44,1.38,8.68,3.61,2.24,2.23,3.61,5.33,3.61,8.68v49.98h85.65v-49.98c0-6.75,5.5-12.29,12.29-12.29,3.39,0,6.44,1.38,8.64,3.61,2.23,2.23,3.61,5.33,3.61,8.68v49.98h68.93c.09,6.62.26,13.28.56,19.9,0,0,.05.86.13,2.54"/>
      <path class="cls-1" d="M336.65,335.96c0,8.08-6.53,14.61-14.61,14.61s-14.61-6.53-14.61-14.61,6.58-14.61,14.61-14.61,14.61,6.53,14.61,14.61"/>
      <path class="cls-1" d="M409.23,341.33l-46.28-30.73,34.68-18.57-55.31-.86,18.65-34.08-46.72,30.73-3.05-39.97-22.35,51.23-24.41-31.8,8.12,54.75-36.66-12.89,36.96,41.34-37.99,9.28,54.19,13.71-27.42,29.27,52.91-18.13-6.96,39.49,34.38-44.09,15.73,36.87,4.73-55.7,33.35,22.3-25.92-45.55,39.37,3.4ZM340.69,345.88h-.09l11.78,6.4-20.97.3,7.48,13.93-17.79-11.91-1.21,16.2-8.55-19.86-9.63,12.77,3.05-21.1-14.57,5.2,14.06-15.95-15.26-3.78,20.67-5.29-10.92-11.86,20.16,7.01-2.79-16.03,13.11,17.1,6.27-14.95,1.8,21.57,13.5-9.15-9.97,17.79,15.38-1.33-17.54,11.86,2.02,1.08Z"/>
    </g>
  </g>
</svg>