<?xml version="1.0" encoding="UTF-8"?>
<svg id="Layer_2" data-name="Layer 2" xmlns="http://www.w3.org/2000/svg" viewBox="0 0 478.92 467.86">
  <defs>
    <style>
      .cls-1 {
        fill: #3c8533;
      }
    </style>
  </defs>
  <g id="Capa_1" data-name="Capa 1">
    <path class="cls-1" d="M469.4,197.3v68.55c0,17.45-14.27,31.72-31.76,31.72h-80.33v80.33c0,17.49-14.27,31.76-31.76,31.76h-68.55c-17.45,0-31.76-14.27-31.76-31.76v-80.33h-80.32c-17.45,0-31.72-14.27-31.72-31.72v-68.55c0-17.49,14.27-31.76,31.72-31.76h80.32v-80.33c0-17.49,14.31-31.76,31.76-31.76h68.55c17.49,0,31.76,14.27,31.76,31.76v80.33h80.33c17.49,0,31.76,14.27,31.76,31.76"/>
    <path class="cls-1" d="M444.1,25.79c3.55,0,5.77,1.92,6.77,3.07,1.02,1.16,2.65,3.64,2.17,7.23-5.91,44.35-12.35,111.03-9.4,176.91.06,1.28,5.97,128.84,3.51,205.66-.37,11.82-9.92,21.16-21.72,21.25-26.01.2-64.43.45-99.7.45-38.22,0-64.95-.28-79.42-.83-7.12-.27-17.13-.41-29.77-.41-44.02,0-112.66,1.61-162.49,2.96h-.62c-11.42,0-20.86-8.57-21.97-19.95-2.91-30.01-6.23-74.67-5.61-117.5,1.34-15.26,14.73-172.95,4.25-275.95-.08-.78.14-1.47.66-2.04.76-.84,1.62-.84,1.89-.84h411.44ZM444.1,0H32.67C15.84,0,2.76,14.54,4.46,31.28,15.12,136.06.09,303.27.09,303.27c-.69,43.7,2.59,89.11,5.71,121.33,2.38,24.6,23.05,43.25,47.63,43.25.44,0,.88,0,1.31-.02,45.78-1.24,117-2.94,161.8-2.94,11.71,0,21.62.12,28.79.39,16.73.63,47.21.85,80.4.85s71.9-.23,99.9-.45c25.63-.2,46.48-20.59,47.3-46.21,2.51-78.76-3.53-207.69-3.53-207.69-2.92-65.15,3.78-131.62,9.2-172.29,2.79-20.91-13.42-39.49-34.5-39.49"/>
  </g>
</svg>