<?xml version="1.0" encoding="UTF-8"?>
<svg id="Layer_2" data-name="Layer 2" xmlns="http://www.w3.org/2000/svg" viewBox="0 0 477.35 471.59">
  <defs>
    <style>
      .cls-1 {
        fill: #3c8533;
      }
    </style>
  </defs>
  <g id="Capa_1" data-name="Capa 1">
    <path class="cls-1" d="M477.3,432.95c-1.33-22.74-4.86-45.26-4.86-45.26-13.36-70.53,3.83-224.3,3.83-224.3,1.72-58.41-3.18-102.55-8-130.53C464.84,12.93,447-1.17,426.85.08c-63.05,3.78-187.47,8.68-225.08,2.58-33.78-5.5-116.47-1.08-160.3,1.85C23.68,5.66,9.19,19.2,6.87,36.87,2.7,68.93,2.02,112.59,2.66,156.99c1.59-.3,40.87-8.77,69.92,16.97,0,0,159.88,116.04,249.36,194.73-7.39-7.82-89.05-93.43-163.36-145.13,0,0,2.54-14.01,15.26-7.65,0,0,14.83,16.55,40.23,5.93,0,0,171.95-70.31,156.74,73.28,0,0-32.62-33.35-78.82-32.79-46.16.6-35.54,22.22-35.54,22.22,0,0,8.85,16.93,41.47,13.97,0,0,88.53-19.04,69.49,117.76,0,0-105.89,5.93-110.15-59.31,0,0,.94-26.69-18.57-21.19,0,0-18.18,3.4,0,43.62,0,0,20.28,32.92,39.32,37,0,0-84.23,40.96-90.81-77.23,0,0-3.22-71.17-26.94-52.52,0,0-32.62,42.8,41.51,144.87,0,0-133.83,8.47-98.68-149.09,0,0,14.4-52.13-13.97-36.45-28.41,15.69-22.48,101.21-12.29,145.27,0,0-42.8-8.9-62.71-46.16,0,0,52.52-75.38,25.83-81.74-25.75-6.15-32.62,44.1-33.05,47.66,0,.04-.05.04,0,.09.13,13.23-.05,23.51-.82,29.61-2.75,22.17-4.77,59.31-6.06,88.58-.99,23.47,18.1,42.89,41.6,42.29,141.78-3.61,330.62-4.72,403.99-5.03,18.22-.04,32.71-15.39,31.68-33.61M145,214.23S-6.2,127.76,74.3,71.89c70.48-48.91,125.36-19.9,125.36-19.9-55.91,19.08-84.28,44.05-96.14,52.09-11.86,8.08-4.68,16.55-4.68,16.55,16.55,15.65,53.81-27.12,53.81-27.12,86-70.31,126.22,5.93,126.22,5.93,20.76,33.87,73.71,86.82,73.71,86.82-146.98-89.35-207.58,27.98-207.58,27.98"/>
  </g>
</svg>