<?xml version="1.0" encoding="UTF-8"?>
<svg id="Layer_2" data-name="Layer 2" xmlns="http://www.w3.org/2000/svg" viewBox="0 0 477.35 471.63">
  <defs>
    <style>
      .cls-1 {
        fill: #df5923;
      }
    </style>
  </defs>
  <g id="Capa_1" data-name="Capa 1">
    <g>
      <path class="cls-1" d="M298.17,66.83c-13.93-13.84-32.24-20.76-50.5-20.76s-36.49,6.88-50.41,20.67l-74.27,73.41,101.17,100.35,74.01-73.45c27.93-27.68,27.93-72.55,0-100.22M284.25,89.56c-1.72,1.68-4.43,1.63-6.1-.04-10.44-10.57-21.36-15.9-32.54-15.81-16.2.09-27.46,11.65-27.59,11.78l-54.06,54.06c-.86.82-1.93,1.25-3.05,1.25s-2.19-.43-3.05-1.25c-1.68-1.67-1.68-4.43,0-6.1l54.02-53.98c.51-.56,13.88-14.22,33.69-14.35,13.53-.13,26.52,6.06,38.68,18.39,1.68,1.68,1.68,4.38,0,6.06"/>
      <path class="cls-1" d="M116.77,146.34l-74.05,73.45c-4.95,4.95-9.03,10.4-12.21,16.2-12.29,22.3-11.56,49.73,2.15,71.43,2.79,4.47,6.14,8.72,10.06,12.59,13.97,13.84,32.23,20.76,50.54,20.76s36.49-6.88,50.41-20.67l74.26-73.45-101.17-100.31ZM118.83,184.67l-53.98,54.02c-.18.13-11.78,11.6-11.87,27.72-.04,11.09,5.29,22,15.86,32.45,1.67,1.67,1.72,4.38.04,6.1-.86.82-1.98,1.25-3.05,1.25s-2.19-.39-3.05-1.25c-12.29-12.12-18.48-25.18-18.39-38.68.17-19.81,13.84-33.18,14.44-33.74l53.94-53.94c1.68-1.72,4.38-1.72,6.06,0,1.68,1.68,1.68,4.39,0,6.06"/>
      <path class="cls-1" d="M441.84,291.47c-1.72-2.41-3.74-4.64-6.06-6.62l-42.25-36.31-48.99,58.1,42.25,36.19c15.9,13.62,39.75,11.69,53.29-4.34.65-.77,1.29-1.59,1.85-2.4,4.77-6.66,7.13-14.44,7.13-22.22s-2.45-15.78-7.22-22.39M430.63,331.83c-.81.95-2.28,1.03-3.22.22-.99-.82-1.08-2.28-.26-3.23,5.2-6.02,7.52-12.03,7.01-17.96-.73-8.64-7.35-14.14-7.43-14.18l-31.07-26.39c-.47-.43-.73-.99-.81-1.59-.04-.56.13-1.16.56-1.67.81-.94,2.28-1.08,3.22-.26l31.03,26.39c.3.26,8.17,6.74,9.11,17.27.64,7.22-2.11,14.4-8.12,21.4"/>
      <path class="cls-1" d="M347.77,209.3c-15.9-13.67-39.75-11.74-53.29,4.3-6.02,7.18-8.98,15.9-8.98,24.63,0,10.79,4.51,21.49,13.28,29.05l42.25,36.32,49-58.1-42.25-36.19ZM369.69,248.24l-31.03-26.39c-.09-.09-6.66-5.76-15.26-5.12-5.89.47-11.47,3.78-16.55,9.84-.82.99-2.28,1.08-3.22.26-.52-.38-.77-.94-.82-1.54-.04-.6.13-1.16.52-1.68,5.93-7.05,12.59-10.92,19.77-11.43,10.57-.77,18.27,5.93,18.57,6.19l31.03,26.39c.94.82,1.07,2.24.26,3.23-.82.94-2.28,1.07-3.27.26"/>
      <path class="cls-1" d="M181.87,332.17l131.77,95.07c-14.91,16.28-36.4,26.47-60.25,26.47-45.21,0-81.83-36.62-81.83-81.83,0-14.39,3.74-27.93,10.31-39.71"/>
      <path class="cls-1" d="M335.22,371.88c0,15.17-4.13,29.36-11.34,41.56l-132.11-95.32c14.96-17.19,37-28.06,61.63-28.06,45.17,0,81.83,36.66,81.83,81.83"/>
      <path class="cls-1" d="M477.3,432.95c-1.33-22.74-4.86-45.26-4.86-45.26-13.32-70.52,3.82-224.3,3.82-224.3,1.72-58.36-3.18-102.5-8-130.52-3.31-19.13-19.85-32.88-39.02-32.88-.77,0-1.59.04-2.41.09-41.47,2.49-109.51,5.46-161.94,5.46-27.25,0-50.28-.77-63.13-2.88C190.08.77,172.59.09,152.82.09,115.48.09,70.18,2.62,41.47,4.51,23.67,5.71,9.19,19.25,6.91,36.92c-11.65,89.09,3.65,267.88-.81,303.85-2.75,22.13-4.77,59.27-6.06,88.53-.99,23.12,17.54,42.33,40.53,42.33.39,0,.73,0,1.07-.04,141.78-3.61,330.63-4.69,403.99-4.99,18.22-.09,32.7-15.43,31.67-33.65M449.92,438.88c-.81.86-2.24,1.89-4.38,1.93-32.58.13-86.95.39-149.69.99-26.65.26-54.8.56-83.46.9-58.02.73-118.02,1.72-171.4,3.1l-.43.04c-5.46,0-9.03-2.88-10.66-4.6-1.63-1.67-4.34-5.33-4.08-10.83,1.67-39.45,3.74-69.36,5.84-86.47.99-7.91,1.2-19.77.99-36.53-.26-15.34-.9-34.77-1.72-59.1-.13-4.04-.3-8.12-.43-12.33-2.19-64.08-4.47-146.21,1.98-195.76.69-5.41,5.2-9.62,10.7-9.97,30.17-2.02,73.71-4.38,109.64-4.38,25.49,0,38.42,1.2,44.83,2.23,13.36,2.2,35.37,3.23,67.26,3.23,53.37,0,121.41-2.97,163.48-5.5.3-.04.6-.04.86-.04,6.74,0,12.46,4.81,13.58,11.47,4.43,25.53,9.28,67.82,7.69,124.37-1.03,9.37-7.35,69.02-8.68,129.84-.34,15.04-.39,30.17.09,44.61.56,20.76,2.11,40.14,5.08,55.96.47,2.88,3.39,22.78,4.55,42.42.13,2.11-.82,3.57-1.63,4.43"/>
    </g>
  </g>
</svg>