<svg width="528" height="266" viewBox="0 0 528 266" fill="none" xmlns="http://www.w3.org/2000/svg">
<path d="M4.08341 124.743C1.35542 124.743 0 123.768 0 120.672V4.07087C0 0.974957 1.35542 0 4.08341 0H66.1581C69.0748 0 70.0528 1.35126 70.0528 4.07087V17.2584C70.0528 19.9781 69.0748 21.3293 66.1581 21.3293H27.0569C25.4956 21.3293 24.7235 21.9109 24.7235 23.4674V53.5371C24.7235 55.2817 25.4956 55.8633 27.0569 55.8633H60.3418C63.2585 55.8633 64.4252 57.2146 64.4252 59.9342V72.9336C64.4252 75.8413 63.2585 77.2097 60.3418 77.2097H27.0569C25.4956 77.2097 24.7235 77.7913 24.7235 79.3478V120.672C24.7235 123.768 23.3681 124.743 20.6401 124.743H4.08341Z" fill="#F0F0F0"/>
<path d="M109.548 124.743C88.5988 124.743 76.623 113.198 76.623 92.3131V55.7094C76.623 34.8248 88.5988 23.2793 109.548 23.2793H155.649C158.634 23.2793 160.041 24.2714 160.041 27.4528V120.57C160.041 123.751 158.652 124.743 155.649 124.743H138.886C136.09 124.743 134.7 123.751 134.7 120.57V114.002H133.894C130.702 121.767 121.712 124.743 114.335 124.743H109.548ZM134.7 47.3453C134.7 45.7546 133.894 45.156 132.298 45.156H113.545C104.967 45.156 101.964 48.5426 101.964 56.8896V91.1157C101.964 99.4798 104.95 102.849 113.545 102.849H120.923C131.903 102.849 134.7 96.2813 134.7 87.7291V47.3453Z" fill="#F0F0F0"/>
<path d="M180.802 124.743C178.005 124.743 176.615 123.751 176.615 120.57V27.4528C176.615 24.2714 178.005 23.2793 180.802 23.2793H197.77C200.567 23.2793 201.956 24.2714 201.956 27.4528V34.2262H202.763C205.748 26.666 214.944 23.2793 222.322 23.2793H229.511C232.496 23.2793 233.508 24.6648 233.508 27.4528V41.1877C233.508 44.1639 232.513 45.5665 229.511 45.1731H215.734C204.753 45.1731 201.956 51.9464 201.956 60.6868V120.57C201.956 123.751 200.567 124.743 197.77 124.743H180.802Z" fill="#F0F0F0"/>
<path d="M245.073 124.743C242.276 124.743 240.887 123.751 240.887 120.57V27.4528C240.887 24.2714 242.276 23.2793 245.073 23.2793H262.042C264.838 23.2793 266.228 24.2714 266.228 27.4528V34.0209H267.034C270.226 27.8462 278.204 23.2793 288.189 23.2793H293.782C306.359 23.2793 313.736 27.658 318.729 36.0221C323.121 27.658 332.094 23.2793 342.08 23.2793H347.862C368.622 23.2793 379.002 34.8248 379.002 55.7094V120.57C379.002 123.751 377.612 124.743 374.816 124.743H357.847C355.051 124.743 353.661 123.751 353.661 120.57V56.8896C353.661 48.5255 350.676 45.156 342.08 45.156H337.087C325.918 45.156 323.31 51.9293 323.31 60.4816V120.57C323.31 123.751 321.714 124.743 318.918 124.743H302.155C299.358 124.743 297.969 123.751 297.969 120.57V56.8896C297.969 48.5255 294.777 45.156 286.199 45.156H280.005C269.025 45.156 266.228 51.7241 266.228 60.2763V120.57C266.228 123.751 264.838 124.743 262.042 124.743H245.073Z" fill="#F0F0F0"/>
<path d="M425.704 124.743C404.755 124.743 392.779 113.198 392.779 92.3131V55.7094C392.779 34.8248 404.755 23.2793 425.704 23.2793H471.805C474.791 23.2793 476.198 24.2714 476.198 27.4528V120.57C476.198 123.751 474.808 124.743 471.805 124.743H455.043C452.246 124.743 450.856 123.751 450.856 120.57V114.002H450.05C446.859 121.767 437.868 124.743 430.491 124.743H425.704ZM450.839 47.3453C450.839 45.7546 450.033 45.156 448.437 45.156H429.684C421.106 45.156 418.103 48.5426 418.103 56.8896V91.1157C418.103 99.4798 421.089 102.849 429.684 102.849H437.062C448.043 102.849 450.839 96.2813 450.839 87.7291V47.3453Z" fill="#F0F0F0"/>
<path d="M83.1264 265C80.3984 265 79.043 264.025 79.043 260.929V144.328C79.043 141.232 80.3984 140.257 83.1264 140.257H130.617C150.863 140.257 162.53 151.512 162.53 171.883V190.51C162.53 210.881 150.846 222.136 130.617 222.136H106.1C104.539 222.136 103.766 222.718 103.766 224.274V260.946C103.766 264.042 102.411 265.017 99.6831 265.017H83.1435L83.1264 265ZM126.534 200.584C134.907 200.584 137.823 197.283 137.823 189.33V173.029C137.823 164.887 134.907 161.586 126.534 161.586H105.911C104.556 161.586 103.766 162.168 103.766 163.724V198.446C103.766 200.003 104.539 200.584 105.911 200.584H126.534Z" fill="#F0F0F0"/>
<path d="M180.837 265C178.04 265 176.65 263.854 176.65 260.177V108.34C176.65 104.663 178.04 103.517 180.837 103.517H197.805C200.602 103.517 201.992 104.663 201.992 108.34V260.177C201.992 263.854 200.602 265 197.805 265H180.837Z" fill="#F0F0F0"/>
<path d="M249.689 265C228.929 265 218.549 253.454 218.549 232.57V167.71C218.549 164.528 219.939 163.536 222.735 163.536H239.704C242.5 163.536 243.89 164.528 243.89 167.71V231.39C243.89 239.754 247.081 243.123 255.471 243.123H262.849C273.829 243.123 276.626 236.555 276.626 228.003V167.71C276.626 164.528 278.016 163.536 280.812 163.536H297.575C300.56 163.536 301.967 164.528 301.967 167.71V260.827C301.967 264.008 300.577 265 297.575 265H280.812C278.016 265 276.626 264.008 276.626 260.827V254.258H275.819C272.628 262.024 263.638 265 256.26 265H249.672H249.689Z" fill="#F0F0F0"/>
<path d="M319.159 265.001C316.173 265.001 315.161 263.615 315.161 260.827V248.084C315.161 245.108 315.967 244.099 319.159 244.099H352.495C358.483 244.099 362.275 242.303 362.275 238.129V237.137C362.275 233.562 358.878 230.569 354.091 227.986L334.326 217.04C321.544 210.471 314.561 203.715 314.561 190.579C314.561 171.884 324.134 163.52 345.1 163.52H378.437C381.422 163.52 382.434 164.905 382.434 167.693V180.624C382.434 183.6 381.628 184.609 378.437 184.609H350.694C344.5 184.609 340.914 186.405 340.914 189.587V190.579C340.914 194.564 345.1 197.147 349.493 199.525L369.652 211.463C383.429 218.818 388.405 225.387 388.405 238.318C388.405 255.029 378.625 264.983 357.076 264.983H319.159V265.001Z" fill="#F0F0F0"/>
<path d="M509.739 146.364C512.656 146.364 515.23 146.5 517.614 146.774C518.953 146.928 519.793 147.321 520.102 147.937C520.24 148.228 520.445 148.981 520.411 149.921C519.931 161.33 519.553 164.922 519.382 166.034C518.198 173.218 518.438 179.7 518.918 192.614C519.141 198.909 519.227 199.969 519.553 203.92C519.639 204.964 519.742 206.212 519.862 207.837C520.342 214.183 520.239 221.144 519.536 229.098C519.021 234.845 518.712 240.661 518.404 246.288C518.318 247.742 518.249 249.179 518.163 250.633C518.095 251.727 518.146 252.719 518.163 253.592C518.198 254.361 518.232 255.08 518.163 255.507C518.078 256.089 518.043 256.397 516.86 256.448C514.303 256.568 511.73 256.705 509.173 256.859C504.644 257.115 499.977 257.372 495.413 257.492C491.381 257.594 487.675 257.663 484.055 257.663C480.95 257.663 477.913 257.628 475.013 257.543C471.65 257.44 468.167 257.235 464.822 257.013C460.876 256.756 456.792 256.499 452.692 256.431C452.177 256.431 451.662 256.431 451.148 256.431C447.51 256.431 443.907 256.653 440.424 256.876C438.897 256.978 437.37 257.064 435.826 257.132C433.476 257.252 431.108 257.372 428.757 257.509C424.794 257.714 420.694 257.936 416.679 258.107C416.318 258.107 415.975 258.124 415.615 258.124C414.345 258.124 413.007 258.039 411.652 257.868C411.206 257.817 410.691 257.748 410.228 256.482C409.902 255.593 409.764 254.276 409.593 252.873C409.541 252.36 409.473 251.847 409.404 251.334C409.267 250.273 409.13 249.213 408.975 248.17C408.478 244.492 407.997 241.02 407.74 237.513C407.362 232.314 407.036 227.251 407.242 222.342C407.448 217.518 407.723 215.089 408.049 212.267C408.34 209.702 408.666 206.794 409.009 201.731C409.301 197.301 410.211 183.822 408.855 170.259C408.426 165.965 408.083 161.758 407.688 157.088C407.483 154.557 407.277 151.837 407.191 149.117C407.191 148.963 407.294 148.673 407.568 148.399C407.877 148.074 408.237 147.92 408.46 147.92C410.965 147.852 413.47 147.783 415.975 147.698C420.299 147.561 424.76 147.407 429.135 147.373C429.684 147.373 430.25 147.373 430.799 147.373C433.441 147.373 436.186 147.441 438.829 147.51C440.75 147.561 442.672 147.595 444.593 147.629C445.795 147.629 447.013 147.646 448.214 147.646C449.192 147.646 450.152 147.646 451.13 147.646C452.091 147.646 453.052 147.646 454.013 147.646L460.79 147.698V147.407C461.51 147.39 462.248 147.373 462.969 147.356C469.574 147.185 476.403 147.014 483.129 146.86C490.935 146.689 500.028 146.5 508.967 146.432H509.722M509.739 139.778C509.465 139.778 509.19 139.778 508.933 139.778C500.286 139.847 491.656 140.018 483.008 140.206C473.349 140.411 463.689 140.685 454.03 140.924C454.03 140.941 454.03 140.976 454.03 140.993C452.091 140.993 450.17 140.993 448.231 140.993C447.047 140.993 445.863 140.993 444.696 140.976C440.081 140.924 435.449 140.736 430.833 140.736C430.25 140.736 429.667 140.736 429.101 140.736C422.186 140.822 415.272 141.113 408.34 141.301C404.188 141.403 400.534 145.115 400.654 149.271C400.74 152.042 400.928 154.813 401.169 157.584C401.529 162.014 401.906 166.444 402.335 170.857C403.622 183.891 402.73 197.198 402.473 201.252C401.769 211.823 401.117 212.592 400.705 222C400.482 227.302 400.826 232.639 401.203 237.924C401.546 242.679 402.284 247.4 402.902 252.121C403.193 254.31 403.313 256.602 404.051 258.638C405.166 261.716 407.414 263.872 410.845 264.316C412.424 264.521 414.037 264.624 415.649 264.624C416.095 264.624 416.541 264.624 416.97 264.59C423.37 264.333 429.77 263.94 436.169 263.632C441.162 263.393 446.172 262.931 451.165 262.931C451.645 262.931 452.108 262.931 452.589 262.931C460.018 263.068 467.413 263.837 474.842 264.043C477.913 264.128 480.984 264.162 484.072 264.162C487.915 264.162 491.759 264.094 495.602 263.991C502.791 263.803 509.98 263.29 517.186 262.948C521.252 262.76 524.168 260.348 524.717 256.328C524.958 254.567 524.649 252.719 524.752 250.941C525.164 243.825 525.49 236.71 526.124 229.611C526.776 222.171 527.017 214.73 526.45 207.273C525.85 199.507 525.816 200.106 525.524 192.306C525.061 179.82 524.838 173.577 525.919 167.043C526.245 165.042 526.622 160.081 527.034 150.127C527.102 148.399 526.811 146.449 526.039 144.91C524.529 141.916 521.629 140.548 518.438 140.172C515.573 139.83 512.673 139.71 509.791 139.71L509.739 139.778Z" fill="#408733"/>
<path d="M523.979 204.501C523.979 199.319 524.082 194.119 524.099 188.936C524.099 188.492 523.945 187.842 523.653 187.671C522.881 187.226 522.006 186.918 521.148 186.73C520.479 186.576 519.741 186.73 519.038 186.713C514.32 186.593 509.619 186.473 504.9 186.354C502.396 186.302 499.873 186.268 497.368 186.217C495.481 186.183 494.778 185.481 494.692 183.6C494.692 183.258 494.692 182.933 494.692 182.591C494.692 178.811 494.692 175.013 494.692 171.233H494.743C494.743 167.179 494.709 163.109 494.761 159.055C494.761 158.182 494.486 157.618 493.765 157.173C491.672 155.839 489.305 155.48 486.92 155.394C482.613 155.223 478.29 155.172 473.966 155.206C470.843 155.223 467.824 155.856 465.113 157.515C463.569 158.456 462.968 159.825 462.951 161.586C462.9 164.562 462.762 167.556 462.694 170.532C462.625 173.423 462.539 176.313 462.557 179.221C462.557 181.342 462.745 183.463 462.762 185.584C462.762 186.798 462.213 187.346 461.012 187.551C460.498 187.636 459.983 187.602 459.451 187.619C456.637 187.705 453.824 187.722 451.01 187.859C446.086 188.098 441.179 188.44 436.255 188.697C434.882 188.765 433.921 189.398 433.286 190.51C432.583 191.742 432.377 193.093 432.48 194.478C432.6 196.24 432.772 198.002 432.823 199.764C432.926 203.27 432.514 206.759 432.96 210.266C433.424 213.875 435.259 216.03 438.862 216.355C440.372 216.492 441.916 216.269 443.426 216.115C449.311 215.517 455.162 215.859 460.995 216.765C462.454 216.988 463.329 217.894 463.517 219.399C463.74 221.247 463.86 223.111 463.998 224.958C464.272 228.602 464.615 232.262 464.787 235.905C464.924 238.83 464.821 241.755 464.856 244.68C464.873 246.835 465.971 247.776 468.098 247.673C469.093 247.622 470.123 247.707 471.118 247.793C473.897 248.05 476.66 248.597 479.422 248.546C483.849 248.46 488.275 248.015 492.702 247.656C494.572 247.502 495.378 246.305 495.275 244.44C495.172 242.61 495.104 240.78 495.241 238.95C495.498 235.546 495.876 232.142 496.253 228.756C496.631 225.489 497.094 222.222 497.489 218.955C497.609 217.997 498.123 217.501 498.998 217.227C502.104 216.235 505.312 216.098 508.521 215.996C513.084 215.859 517.648 215.842 522.212 215.808C523.018 215.808 523.533 215.465 523.722 214.764C523.945 213.943 524.168 213.105 524.168 212.267C524.168 209.667 524.014 207.084 524.014 204.484L523.979 204.501Z" fill="#408733"/>
</svg>
